<?xml version="1.0" encoding="UTF-8"?>
<svg id="Camada_2" data-name="Camada 2" xmlns="http://www.w3.org/2000/svg" xmlns:xlink="http://www.w3.org/1999/xlink" viewBox="0 0 252.53 440.62">
  <defs>
    <style>
      .cls-1 {
        fill: #f05a2f;
      }

      .cls-1, .cls-2, .cls-3, .cls-4, .cls-5, .cls-6, .cls-7, .cls-8, .cls-9, .cls-10, .cls-11, .cls-12, .cls-13, .cls-14, .cls-15, .cls-16, .cls-17, .cls-18, .cls-19, .cls-20, .cls-21, .cls-22, .cls-23, .cls-24, .cls-25, .cls-26, .cls-27, .cls-28, .cls-29, .cls-30, .cls-31, .cls-32, .cls-33, .cls-34, .cls-35, .cls-36, .cls-37, .cls-38, .cls-39, .cls-40, .cls-41, .cls-42, .cls-43, .cls-44, .cls-45, .cls-46, .cls-47, .cls-48, .cls-49, .cls-50, .cls-51, .cls-52, .cls-53, .cls-54, .cls-55, .cls-56, .cls-57, .cls-58, .cls-59, .cls-60, .cls-61, .cls-62, .cls-63, .cls-64, .cls-65, .cls-66, .cls-67, .cls-68, .cls-69, .cls-70, .cls-71, .cls-72, .cls-73, .cls-74, .cls-75, .cls-76, .cls-77, .cls-78, .cls-79, .cls-80, .cls-81, .cls-82, .cls-83, .cls-84, .cls-85, .cls-86, .cls-87, .cls-88, .cls-89, .cls-90, .cls-91, .cls-92, .cls-93, .cls-94, .cls-95, .cls-96, .cls-97, .cls-98, .cls-99, .cls-100, .cls-101, .cls-102, .cls-103, .cls-104, .cls-105, .cls-106, .cls-107, .cls-108, .cls-109, .cls-110, .cls-111, .cls-112, .cls-113, .cls-114, .cls-115, .cls-116, .cls-117, .cls-118, .cls-119, .cls-120, .cls-121, .cls-122, .cls-123, .cls-124, .cls-125, .cls-126, .cls-127 {
        fill-rule: evenodd;
        stroke-width: 0px;
      }

      .cls-2 {
        fill: #ffc728;
      }

      .cls-3 {
        fill: #f0e931;
      }

      .cls-4 {
        fill: #f6912e;
      }

      .cls-5 {
        fill: #f2ea39;
      }

      .cls-6 {
        fill: #f16a2e;
      }

      .cls-7 {
        fill: #f1612d;
      }

      .cls-8 {
        fill: #f7972e;
      }

      .cls-9 {
        fill: #f5eb3c;
      }

      .cls-10 {
        fill: #fdc028;
      }

      .cls-11 {
        fill: #fbb42b;
      }

      .cls-12 {
        fill: #fdba2a;
      }

      .cls-13 {
        fill: #f68c2d;
      }

      .cls-14 {
        fill: #f4802d;
      }

      .cls-15 {
        fill: #ffca29;
      }

      .cls-16 {
        fill: #f9a72b;
      }

      .cls-17 {
        fill: #f6eb3c;
      }

      .cls-18 {
        fill: #f0592f;
      }

      .cls-19 {
        fill: #fcb72b;
      }

      .cls-20 {
        fill: #f47e2d;
      }

      .cls-21 {
        fill: #ee3e32;
      }

      .cls-22 {
        fill: #f0582f;
      }

      .cls-23 {
        fill: #f7952e;
      }

      .cls-24 {
        fill: #fbaf2b;
      }

      .cls-25 {
        fill: #f68e2e;
      }

      .cls-26 {
        fill: #f3762d;
      }

      .cls-27 {
        fill: #ee3d32;
      }

      .cls-28 {
        fill: #f26e2e;
      }

      .cls-29 {
        fill: #f89b2e;
      }

      .cls-30 {
        fill: #ef4e30;
      }

      .cls-31 {
        fill: #f05d2f;
      }

      .cls-32 {
        fill: #ffc628;
      }

      .cls-33 {
        fill: #f37d2d;
      }

      .cls-34 {
        fill: #f05630;
      }

      .cls-35 {
        fill: #ffc427;
      }

      .cls-36 {
        fill: #ee4231;
      }

      .cls-37 {
        fill: #ef4a30;
      }

      .cls-38 {
        fill: #fbaf2c;
      }

      .cls-39 {
        fill: #f26b2e;
      }

      .cls-40 {
        fill: #f5872c;
      }

      .cls-41 {
        fill: #f05e2e;
      }

      .cls-42 {
        fill: #f8ec38;
      }

      .cls-43 {
        fill: #f3782d;
      }

      .cls-44 {
        fill: #fcb52b;
      }

      .cls-45 {
        fill: #f5892c;
      }

      .cls-46 {
        fill: #f9a22c;
      }

      .cls-47 {
        fill: #ee4531;
      }

      .cls-48 {
        fill: #ee4830;
      }

      .cls-49 {
        fill: #ef4930;
      }

      .cls-50 {
        fill: #efe82b;
      }

      .cls-51 {
        fill: #fcd82a;
      }

      .cls-52 {
        fill: #f1662e;
      }

      .cls-53 {
        fill: #fbb22b;
      }

      .cls-54 {
        fill: #f4832d;
      }

      .cls-55 {
        fill: url(#radial-gradient);
      }

      .cls-56 {
        fill: #f6932e;
      }

      .cls-57 {
        fill: #ee4431;
      }

      .cls-58 {
        fill: #f1ea37;
      }

      .cls-59 {
        fill: #eee821;
      }

      .cls-60 {
        fill: #f1682e;
      }

      .cls-61 {
        fill: #fce42c;
      }

      .cls-62 {
        fill: #fcb82a;
      }

      .cls-63 {
        fill: #fdd728;
      }

      .cls-64 {
        fill: #f2742e;
      }

      .cls-65 {
        fill: #f26d2e;
      }

      .cls-66 {
        fill: #f5852c;
      }

      .cls-67 {
        fill: #ffd128;
      }

      .cls-68 {
        fill: #ffcc29;
      }

      .cls-69 {
        fill: #f37b2d;
      }

      .cls-70 {
        fill: #ee4731;
      }

      .cls-71 {
        fill: #ffd328;
      }

      .cls-72 {
        fill: #ef4d30;
      }

      .cls-73 {
        fill: #f4812d;
      }

      .cls-74 {
        fill: #fdbd29;
      }

      .cls-75 {
        fill: #f0e934;
      }

      .cls-76 {
        fill: #fdbf28;
      }

      .cls-77 {
        fill: #ef542f;
      }

      .cls-78 {
        fill: #f2722e;
      }

      .cls-79 {
        fill: #f9a12d;
      }

      .cls-80 {
        fill: #f89a2e;
      }

      .cls-81 {
        fill: #ee4032;
      }

      .cls-82 {
        fill: #ef4f30;
      }

      .cls-83 {
        fill: #f4eb3b;
      }

      .cls-84 {
        fill: #fcdc2b;
      }

      .cls-85 {
        fill: #f89f2c;
      }

      .cls-86 {
        fill: #ef5330;
      }

      .cls-87 {
        fill: #ef5130;
      }

      .cls-88 {
        fill: #f0572f;
      }

      .cls-89 {
        fill: #f0602e;
      }

      .cls-90 {
        fill: #f5842c;
      }

      .cls-91 {
        fill: #f9a52c;
      }

      .cls-92 {
        fill: #f89d2c;
      }

      .cls-93 {
        fill: #fbec30;
      }

      .cls-94 {
        fill: #fbe12c;
      }

      .cls-95 {
        fill: #faac2c;
      }

      .cls-96 {
        fill: #fce82e;
      }

      .cls-97 {
        fill: #f2712e;
      }

      .cls-98 {
        fill: #f37a2d;
      }

      .cls-99 {
        fill: #ee4131;
      }

      .cls-100 {
        fill: #f1622e;
      }

      .cls-101 {
        fill: #fcda2b;
      }

      .cls-102 {
        fill: #f5882c;
      }

      .cls-103 {
        fill: #ef5230;
      }

      .cls-104 {
        fill: #faaa2c;
      }

      .cls-105 {
        fill: #f68f2e;
      }

      .cls-106 {
        fill: #ee3f32;
      }

      .cls-107 {
        fill: #fce52d;
      }

      .cls-108 {
        fill: #faa82b;
      }

      .cls-109 {
        fill: #f3792d;
      }

      .cls-110 {
        fill: #f58b2c;
      }

      .cls-111 {
        fill: #f05c2f;
      }

      .cls-112 {
        fill: #ee4631;
      }

      .cls-113 {
        fill: #f47f2d;
      }

      .cls-114 {
        fill: #ffc228;
      }

      .cls-115 {
        fill: #f9ed35;
      }

      .cls-116 {
        fill: #faed33;
      }

      .cls-117 {
        fill: #f3752e;
      }

      .cls-118 {
        fill: #fcdf2c;
      }

      .cls-119 {
        fill: #f1642e;
      }

      .cls-120 {
        fill: #f9a42c;
      }

      .cls-121 {
        fill: #fbdd2b;
      }

      .cls-122 {
        fill: #f26f2e;
      }

      .cls-123 {
        fill: #f7982d;
      }

      .cls-124 {
        fill: #ef4b30;
      }

      .cls-125 {
        fill: #f1672e;
      }

      .cls-126 {
        fill: #ffd628;
      }

      .cls-127 {
        fill: #ffcf28;
      }
    </style>
    <radialGradient id="radial-gradient" cx="117.24" cy="103.65" fx="117.24" fy="103.65" r="104.8" gradientUnits="userSpaceOnUse">
      <stop offset="0" stop-color="#fff"/>
      <stop offset="1" stop-color="#1464af"/>
    </radialGradient>
  </defs>
  <g id="quadrado">
    <g id="quadrado-2" data-name="quadrado">
      <polygon class="cls-27" points=".03 188.9 252.53 188.9 252.53 440.62 .03 440.62 .03 188.9 .03 188.9"/>
      <polygon class="cls-59" points="124.8 313.29 127.76 313.29 127.76 316.24 124.8 316.24 124.8 313.29 124.8 313.29"/>
      <path class="cls-50" d="M125.3,313.78v1.97h1.97v-1.97h-1.97ZM123.81,312.31h4.93v4.92h-4.93v-4.92h0Z"/>
      <path class="cls-3" d="M124.31,312.8v3.93h3.95v-3.93h-3.95ZM122.83,311.32h6.9v6.88h-6.9v-6.88h0Z"/>
      <path class="cls-75" d="M123.32,311.82v5.9h5.92v-5.9h-5.92ZM121.84,310.34h8.88v8.85h-8.88v-8.85h0Z"/>
      <path class="cls-58" d="M122.34,310.83v7.87h7.89v-7.87h-7.89ZM120.86,309.36h10.85v10.82h-10.85v-10.82h0Z"/>
      <path class="cls-5" d="M121.35,309.85v9.83h9.86v-9.83h-9.86ZM119.87,308.37h12.82v12.78h-12.82v-12.78h0Z"/>
      <path class="cls-83" d="M120.36,308.86v11.8h11.84v-11.8h-11.84ZM118.88,307.39h14.79v14.75h-14.79v-14.75h0Z"/>
      <path class="cls-9" d="M119.38,307.88v13.77h13.81v-13.77h-13.81ZM117.9,306.41h16.77v16.72h-16.77v-16.72h0Z"/>
      <path class="cls-17" d="M118.39,306.9v15.73h15.78v-15.73h-15.78ZM116.91,305.42h18.74v18.68h-18.74v-18.68h0Z"/>
      <path class="cls-42" d="M117.4,305.92v17.7h17.75v-17.7h-17.75ZM115.92,304.44h20.71v20.65h-20.71v-20.65h0Z"/>
      <path class="cls-115" d="M116.42,304.93v19.66h19.73v-19.66h-19.73ZM114.94,303.46h22.69v22.61h-22.69v-22.61h0Z"/>
      <path class="cls-116" d="M115.43,303.95v21.63h21.7v-21.63h-21.7ZM113.95,302.47h24.66v24.58h-24.66v-24.58h0Z"/>
      <path class="cls-93" d="M114.44,302.97v23.6h23.67v-23.6h-23.67ZM112.97,301.49h26.63v26.55h-26.63v-26.55h0Z"/>
      <path class="cls-96" d="M113.46,301.98v25.57h25.64v-25.57h-25.64ZM111.98,300.51h28.6v28.52h-28.6v-28.52h0Z"/>
      <path class="cls-107" d="M112.47,301v27.53h27.62v-27.53h-27.62ZM110.99,299.52h30.58v30.48h-30.58v-30.48h0Z"/>
      <path class="cls-61" d="M111.49,300.02v29.5h29.59v-29.5h-29.59ZM110.01,298.54h32.55v32.45h-32.55v-32.45h0Z"/>
      <path class="cls-94" d="M110.5,299.03v31.46h31.56v-31.46h-31.56ZM109.02,297.56h34.52v34.41h-34.52v-34.41h0Z"/>
      <path class="cls-118" d="M109.51,298.05v33.43h33.54v-33.43h-33.54ZM108.03,296.57h36.49v36.38h-36.49v-36.38h0Z"/>
      <path class="cls-121" d="M108.53,297.07v35.4h35.51v-35.4h-35.51ZM107.05,295.59h38.47v38.35h-38.47v-38.35h0Z"/>
      <path class="cls-84" d="M107.54,296.08v37.36h37.48v-37.36h-37.48ZM106.06,294.61h40.44v40.32h-40.44v-40.32h0Z"/>
      <path class="cls-101" d="M106.55,295.1v39.33h39.45v-39.33h-39.45ZM105.08,293.62h42.41v42.28h-42.41v-42.28h0Z"/>
      <path class="cls-51" d="M105.57,294.12v41.3h41.43v-41.3h-41.43ZM104.09,292.64h44.38v44.25h-44.38v-44.25h0Z"/>
      <path class="cls-63" d="M104.58,293.13v43.26h43.4v-43.26h-43.4ZM103.1,291.66h46.36v46.21h-46.36v-46.21h0Z"/>
      <path class="cls-126" d="M103.6,292.15v45.23h45.37v-45.23h-45.37ZM102.12,290.67h48.33v48.18h-48.33v-48.18h0Z"/>
      <path class="cls-71" d="M102.61,291.17v47.2h47.34v-47.2h-47.34ZM101.13,289.69h50.3v50.15h-50.3v-50.15h0Z"/>
      <path class="cls-67" d="M101.62,290.18v49.16h49.32v-49.16h-49.32ZM100.14,288.71h52.28v52.11h-52.28v-52.11h0Z"/>
      <path class="cls-127" d="M100.64,289.2v51.13h51.29v-51.13h-51.29ZM99.16,287.72h54.25v54.08h-54.25v-54.08h0Z"/>
      <path class="cls-127" d="M99.65,288.22v53.1h53.26v-53.1h-53.26ZM98.17,286.74h56.22v56.05h-56.22v-56.05h0Z"/>
      <path class="cls-68" d="M98.66,287.23v55.06h55.23v-55.06h-55.23ZM97.18,285.76h58.19v58.01h-58.19v-58.01h0Z"/>
      <path class="cls-15" d="M97.68,286.25v57.03h57.21v-57.03h-57.21ZM96.2,284.77h60.17v59.98h-60.17v-59.98h0Z"/>
      <path class="cls-2" d="M96.69,285.27v59h59.18v-59h-59.18ZM95.21,283.79h62.14v61.95h-62.14v-61.95h0Z"/>
      <path class="cls-32" d="M95.7,284.28v60.96h61.15v-60.96h-61.15ZM94.23,282.81h64.11v63.91h-64.11v-63.91h0Z"/>
      <path class="cls-35" d="M94.72,283.3v62.93h63.13v-62.93h-63.13ZM93.24,281.82h66.09v65.88h-66.09v-65.88h0Z"/>
      <path class="cls-114" d="M93.73,282.32v64.9h65.1v-64.9h-65.1ZM92.25,280.84h68.06v67.85h-68.06v-67.85h0Z"/>
      <path class="cls-10" d="M92.75,281.33v66.86h67.07v-66.86h-67.07ZM91.27,279.86h70.03v69.81h-70.03v-69.81h0Z"/>
      <path class="cls-76" d="M91.76,280.35v68.83h69.04v-68.83h-69.04ZM90.28,278.87h72v71.78h-72v-71.78h0Z"/>
      <path class="cls-74" d="M90.77,279.37v70.8h71.02v-70.8h-71.02ZM89.29,277.89h73.97v73.75h-73.97v-73.75h0Z"/>
      <path class="cls-12" d="M89.79,278.38v72.76h72.99v-72.76h-72.99ZM88.31,276.91h75.95v75.71h-75.95v-75.71h0Z"/>
      <path class="cls-62" d="M88.8,277.4v74.73h74.96v-74.73h-74.96ZM87.32,275.93h77.92v77.68h-77.92v-77.68h0Z"/>
      <path class="cls-19" d="M87.81,276.42v76.7h76.93v-76.7h-76.93ZM86.34,274.94h79.89v79.65h-79.89v-79.65h0Z"/>
      <path class="cls-44" d="M86.83,275.43v78.66h78.91v-78.66h-78.91ZM85.35,273.96h81.87v81.61h-81.87v-81.61h0Z"/>
      <path class="cls-11" d="M85.84,274.45v80.63h80.88v-80.63h-80.88ZM84.36,272.98h83.84v83.58h-83.84v-83.58h0Z"/>
      <path class="cls-53" d="M84.85,273.47v82.6h82.85v-82.6h-82.85ZM83.38,271.99h85.81v85.55h-85.81v-85.55h0Z"/>
      <path class="cls-24" d="M83.87,272.48v84.56h84.82v-84.56h-84.82ZM82.39,271.01h87.78v87.51h-87.78v-87.51h0Z"/>
      <path class="cls-38" d="M82.88,271.5v86.53h86.8v-86.53h-86.8ZM81.4,270.02h89.76v89.48h-89.76v-89.48h0Z"/>
      <path class="cls-95" d="M81.9,270.52v88.5h88.77v-88.5h-88.77ZM80.42,269.04h91.73v91.45h-91.73v-91.45h0Z"/>
      <path class="cls-104" d="M80.91,269.53v90.46h90.74v-90.46h-90.74ZM79.43,268.06h93.7v93.41h-93.7v-93.41h0Z"/>
      <path class="cls-108" d="M79.92,268.55v92.43h92.72v-92.43h-92.72ZM78.44,267.07h95.67v95.38h-95.67v-95.38h0Z"/>
      <path class="cls-16" d="M78.94,267.57v94.4h94.69v-94.4h-94.69ZM77.46,266.09h97.65v97.35h-97.65v-97.35h0Z"/>
      <path class="cls-91" d="M77.95,266.58v96.36h96.66v-96.36h-96.66ZM76.47,265.11h99.62v99.31h-99.62v-99.31h0Z"/>
      <path class="cls-120" d="M76.96,265.6v98.33h98.63v-98.33h-98.63ZM75.48,264.13h101.59v101.28h-101.59v-101.28h0Z"/>
      <path class="cls-46" d="M75.98,264.62v100.3h100.61v-100.3h-100.61ZM74.5,263.14h103.57v103.25h-103.57v-103.25h0Z"/>
      <path class="cls-79" d="M74.99,263.63v102.26h102.58v-102.26h-102.58ZM73.51,262.16h105.54v105.21h-105.54v-105.21h0Z"/>
      <path class="cls-85" d="M74.01,262.65v104.23h104.55v-104.23h-104.55ZM72.53,261.18h107.51v107.18h-107.51v-107.18h0Z"/>
      <path class="cls-92" d="M73.02,261.67v106.19h106.52v-106.19h-106.52ZM71.54,260.19h109.48v109.15h-109.48v-109.15h0Z"/>
      <path class="cls-29" d="M72.03,260.68v108.16h108.5v-108.16h-108.5ZM70.55,259.21h111.46v111.11h-111.46v-111.11h0Z"/>
      <path class="cls-80" d="M71.05,259.7v110.13h110.47v-110.13h-110.47ZM69.57,258.22h113.43v113.08h-113.43v-113.08h0Z"/>
      <path class="cls-123" d="M70.06,258.72v112.1h112.44v-112.1h-112.44ZM68.58,257.24h115.4v115.04h-115.4v-115.04h0Z"/>
      <path class="cls-8" d="M69.07,257.73v114.06h114.41v-114.06h-114.41ZM67.59,256.26h117.37v117.01h-117.37v-117.01h0Z"/>
      <path class="cls-23" d="M68.09,256.75v116.03h116.39v-116.03h-116.39ZM66.61,255.27h119.35v118.98h-119.35v-118.98h0Z"/>
      <path class="cls-23" d="M67.1,255.77v118h118.36v-118h-118.36ZM65.62,254.29h121.32v120.95h-121.32v-120.95h0Z"/>
      <path class="cls-56" d="M66.11,254.78v119.96h120.33v-119.96h-120.33ZM64.64,253.31h123.29v122.91h-123.29v-122.91h0Z"/>
      <path class="cls-4" d="M65.13,253.8v121.93h122.3v-121.93h-122.3ZM63.65,252.33h125.26v124.88H63.65v-124.88h0Z"/>
      <path class="cls-105" d="M64.14,252.82v123.9h124.28v-123.9h-124.28ZM62.66,251.34h127.24v126.84H62.66v-126.84h0Z"/>
      <path class="cls-25" d="M63.16,251.83v125.86h126.25v-125.86H63.16ZM61.68,250.36h129.21v128.81H61.68v-128.81h0Z"/>
      <path class="cls-13" d="M62.17,250.85v127.83h128.22v-127.83H62.17ZM60.69,249.38h131.18v130.78H60.69v-130.78h0Z"/>
      <path class="cls-110" d="M61.18,249.87v129.79h130.2v-129.79H61.18ZM59.7,248.39h133.15v132.75H59.7v-132.75h0Z"/>
      <path class="cls-45" d="M60.2,248.88v131.76h132.17v-131.76H60.2ZM58.72,247.41h135.13v134.71H58.72v-134.71h0Z"/>
      <path class="cls-102" d="M59.21,247.9v133.73h134.14v-133.73H59.21ZM57.73,246.43h137.1v136.68H57.73v-136.68h0Z"/>
      <path class="cls-40" d="M58.22,246.92v135.7h136.11v-135.7H58.22ZM56.75,245.44h139.07v138.64H56.75v-138.64h0Z"/>
      <path class="cls-66" d="M57.24,245.93v137.66h138.09v-137.66H57.24ZM55.76,244.46h141.05v140.61H55.76v-140.61h0Z"/>
      <path class="cls-90" d="M56.25,244.95v139.63h140.06v-139.63H56.25ZM54.77,243.47h143.02v142.58H54.77v-142.58h0Z"/>
      <path class="cls-54" d="M55.27,243.97v141.59h142.03v-141.59H55.27ZM53.79,242.49h144.99v144.54H53.79v-144.54h0Z"/>
      <path class="cls-73" d="M54.28,242.98v143.56h144v-143.56H54.28ZM52.8,241.51h146.96v146.51H52.8v-146.51h0Z"/>
      <path class="cls-14" d="M53.29,242v145.53h145.98v-145.53H53.29ZM51.81,240.53h148.93v148.48H51.81v-148.48h0Z"/>
      <path class="cls-113" d="M52.31,241.02v147.5h147.95v-147.5H52.31ZM50.83,239.54h150.91v150.44H50.83v-150.44h0Z"/>
      <path class="cls-20" d="M51.32,240.03v149.46h149.92v-149.46H51.32ZM49.84,238.56h152.88v152.41H49.84v-152.41h0Z"/>
      <path class="cls-33" d="M50.33,239.05v151.43h151.89v-151.43H50.33ZM48.85,237.58h154.85v154.38H48.85v-154.38h0Z"/>
      <path class="cls-69" d="M49.35,238.07v153.39h153.87v-153.39H49.35ZM47.87,236.59h156.83v156.34H47.87v-156.34h0Z"/>
      <path class="cls-98" d="M48.36,237.08v155.36h155.84v-155.36H48.36ZM46.88,235.61h158.8v158.31H46.88v-158.31h0Z"/>
      <path class="cls-109" d="M47.37,236.1v157.33h157.81v-157.33H47.37ZM45.89,234.63h160.77v160.28H45.89v-160.28h0Z"/>
      <path class="cls-43" d="M46.39,235.12v159.29h159.79v-159.29H46.39ZM44.91,233.64h162.74v162.24H44.91v-162.24h0Z"/>
      <path class="cls-26" d="M45.4,234.14v161.26h161.76v-161.26H45.4ZM43.92,232.66h164.72v164.21H43.92v-164.21h0Z"/>
      <path class="cls-117" d="M44.42,233.15v163.23h163.73v-163.23H44.42ZM42.94,231.68h166.69v166.18H42.94v-166.18h0Z"/>
      <path class="cls-64" d="M43.43,232.17v165.19h165.7v-165.19H43.43ZM41.95,230.69h168.66v168.14H41.95v-168.14h0Z"/>
      <path class="cls-78" d="M42.44,231.18v167.16h167.68v-167.16H42.44ZM40.96,229.71h170.64v170.11H40.96v-170.11h0Z"/>
      <path class="cls-97" d="M41.46,230.2v169.12h169.65v-169.12H41.46ZM39.98,228.73h172.61v172.08H39.98v-172.08h0Z"/>
      <path class="cls-122" d="M40.47,229.22v171.09h171.62v-171.09H40.47ZM38.99,227.74h174.58v174.04H38.99v-174.04h0Z"/>
      <path class="cls-28" d="M39.48,228.23v173.06h173.59v-173.06H39.48ZM38,226.76h176.55v176.01H38v-176.01h0Z"/>
      <path class="cls-65" d="M38.5,227.25v175.03h175.57v-175.03H38.5ZM37.02,225.78h178.53v177.98H37.02v-177.98h0Z"/>
      <path class="cls-39" d="M37.51,226.27v176.99h177.54v-176.99H37.51ZM36.03,224.79h180.5v179.94H36.03v-179.94h0Z"/>
      <path class="cls-6" d="M36.52,225.28v178.96h179.51v-178.96H36.52ZM35.05,223.81h182.47v181.91H35.05v-181.91h0Z"/>
      <path class="cls-60" d="M35.54,224.3v180.93h181.48v-180.93H35.54ZM34.06,222.83h184.45v183.88H34.06v-183.88h0Z"/>
      <path class="cls-125" d="M34.55,223.32v182.89h183.46v-182.89H34.55ZM33.07,221.84h186.42v185.84H33.07v-185.84h0Z"/>
      <path class="cls-52" d="M33.57,222.34v184.86h185.43v-184.86H33.57ZM32.09,220.86h188.39v187.81H32.09v-187.81h0Z"/>
      <path class="cls-119" d="M32.58,221.35v186.83h187.4v-186.83H32.58ZM31.1,219.88h190.36v189.78H31.1v-189.78h0Z"/>
      <path class="cls-100" d="M31.59,220.37v188.79h189.38v-188.79H31.59ZM30.11,218.89h192.33v191.74H30.11v-191.74h0Z"/>
      <path class="cls-7" d="M30.61,219.38v190.76h191.35v-190.76H30.61ZM29.13,217.91h194.31v193.71H29.13v-193.71h0Z"/>
      <path class="cls-89" d="M29.62,218.4v192.72h193.32v-192.72H29.62ZM28.14,216.93h196.28v195.68H28.14v-195.68h0Z"/>
      <path class="cls-41" d="M28.63,217.42v194.69h195.29v-194.69H28.63ZM27.15,215.94h198.25v197.64H27.15v-197.64h0Z"/>
      <path class="cls-31" d="M27.65,216.43v196.66h197.27v-196.66H27.65ZM26.17,214.96h200.23v199.61H26.17v-199.61h0Z"/>
      <path class="cls-111" d="M26.66,215.45v198.62h199.24v-198.62H26.66ZM25.18,213.98h202.2v201.58H25.18v-201.58h0Z"/>
      <path class="cls-1" d="M25.68,214.47v200.59h201.21v-200.59H25.68ZM24.2,212.99h204.17v203.54H24.2v-203.54h0Z"/>
      <path class="cls-18" d="M24.69,213.48v202.56h203.18v-202.56H24.69ZM23.21,212.01h206.14v205.51H23.21v-205.51h0Z"/>
      <path class="cls-22" d="M23.7,212.5v204.52h205.16v-204.52H23.7ZM22.22,211.03h208.12v207.47H22.22v-207.47h0Z"/>
      <path class="cls-88" d="M22.72,211.52v206.49h207.13v-206.49H22.72ZM21.24,210.05h210.09v209.44H21.24v-209.44h0Z"/>
      <path class="cls-34" d="M21.73,210.54v208.46h209.1v-208.46H21.73ZM20.25,209.06h212.06v211.41H20.25v-211.41h0Z"/>
      <path class="cls-77" d="M20.74,209.55v210.42h211.07v-210.42H20.74ZM19.26,208.08h214.03v213.37H19.26v-213.37h0Z"/>
      <path class="cls-86" d="M19.76,208.57v212.39h213.05v-212.39H19.76ZM18.28,207.09h216.01v215.34H18.28v-215.34h0Z"/>
      <path class="cls-103" d="M18.77,207.59v214.36h215.02v-214.36H18.77ZM17.29,206.11h217.98v217.31H17.29v-217.31h0Z"/>
      <path class="cls-87" d="M17.79,206.6v216.32h216.99v-216.32H17.79ZM16.3,205.13h219.95v219.27H16.3v-219.27h0Z"/>
      <path class="cls-82" d="M16.8,205.62v218.29h218.97v-218.29H16.8ZM15.32,204.14h221.92v221.24H15.32v-221.24h0Z"/>
      <path class="cls-30" d="M15.81,204.64v220.26h220.94v-220.26H15.81ZM14.33,203.16h223.9v223.21H14.33v-223.21h0Z"/>
      <path class="cls-72" d="M14.83,203.65v222.22h222.91v-222.22H14.83ZM13.35,202.18h225.87v225.17H13.35v-225.17h0Z"/>
      <path class="cls-124" d="M13.84,202.67v224.19h224.88v-224.19H13.84ZM12.36,201.19h227.84v227.14H12.36v-227.14h0Z"/>
      <path class="cls-37" d="M12.85,201.69v226.16h226.86v-226.16H12.85ZM11.37,200.21h229.82v229.11H11.37v-229.11h0Z"/>
      <path class="cls-49" d="M11.87,200.7v228.12h228.83v-228.12H11.87ZM10.39,199.23h231.79v231.07H10.39v-231.07h0Z"/>
      <path class="cls-48" d="M10.88,199.72v230.09h230.8v-230.09H10.88ZM9.4,198.25h233.76v233.04H9.4v-233.04h0Z"/>
      <path class="cls-70" d="M9.89,198.74v232.06h232.77v-232.06H9.89ZM8.41,197.26h235.73v235.01H8.41v-235.01h0Z"/>
      <path class="cls-112" d="M8.91,197.75v234.02h234.75v-234.02H8.91ZM7.43,196.28h237.71v236.97H7.43v-236.97h0Z"/>
      <path class="cls-47" d="M7.92,196.77v235.99h236.72v-235.99H7.92ZM6.44,195.29h239.68v238.94H6.44v-238.94h0Z"/>
      <path class="cls-57" d="M6.93,195.79v237.96h238.69v-237.96H6.93ZM5.46,194.31h241.65v240.91H5.46v-240.91h0Z"/>
      <path class="cls-36" d="M5.95,194.8v239.92h240.66v-239.92H5.95ZM4.47,193.33h243.62v242.87H4.47v-242.87h0Z"/>
      <path class="cls-99" d="M4.96,193.82v241.89h242.64v-241.89H4.96ZM3.48,192.35h245.6v244.84H3.48v-244.84h0Z"/>
      <path class="cls-81" d="M3.98,192.84v243.86h244.61v-243.86H3.98ZM2.5,191.36h247.57v246.81H2.5v-246.81h0Z"/>
      <path class="cls-106" d="M2.99,191.85v245.82h246.58v-245.82H2.99ZM1.51,190.38h249.54v248.77H1.51v-248.77h0Z"/>
      <path class="cls-21" d="M2,190.87v247.79h248.56v-247.79H2ZM.52,189.39h251.52v250.74H.52v-250.74h0Z"/>
      <path class="cls-27" d="M1.02,189.89v249.76h250.53v-249.76H1.02ZM.03,188.9h252.5v251.72H.03v-251.72H.03Z"/>
    </g>
  </g>
  <g id="bola">
    <path id="bola-2" data-name="bola" class="cls-55" d="M125.86,0c69.51,0,125.86,56.35,125.86,125.86s-56.35,125.86-125.86,125.86S0,195.37,0,125.86,56.35,0,125.86,0h0Z"/>
  </g>
</svg>